<svg xmlns="http://www.w3.org/2000/svg" width="480" height="360" font-family="Arial,sans-serif">
<rect width="480" height="360" fill="#04060a"/>
<defs><filter id="g"><feGaussianBlur stdDeviation="2"/></filter></defs>
<ellipse cx="205" cy="127" rx="14" ry="12" fill="#2b6cff" opacity="0.85" filter="url(#g)"/>
<ellipse cx="373" cy="74" rx="11" ry="9" fill="#2b6cff" opacity="0.85" filter="url(#g)"/>
<ellipse cx="314" cy="98" rx="13" ry="11" fill="#2b6cff" opacity="0.85" filter="url(#g)"/>
<ellipse cx="338" cy="79" rx="15" ry="13" fill="#2b6cff" opacity="0.85" filter="url(#g)"/>
<ellipse cx="149" cy="69" rx="11" ry="9" fill="#2b6cff" opacity="0.85" filter="url(#g)"/>
<ellipse cx="262" cy="264" rx="11" ry="9" fill="#2b6cff" opacity="0.85" filter="url(#g)"/>
<ellipse cx="163" cy="96" rx="15" ry="13" fill="#2b6cff" opacity="0.85" filter="url(#g)"/>
<ellipse cx="257" cy="80" rx="17" ry="15" fill="#2b6cff" opacity="0.85" filter="url(#g)"/>
<ellipse cx="329" cy="113" rx="12" ry="10" fill="#2b6cff" opacity="0.85" filter="url(#g)"/>
<ellipse cx="362" cy="81" rx="15" ry="13" fill="#2b6cff" opacity="0.85" filter="url(#g)"/>
<ellipse cx="339" cy="253" rx="11" ry="9" fill="#2b6cff" opacity="0.85" filter="url(#g)"/>
<ellipse cx="153" cy="73" rx="15" ry="13" fill="#2b6cff" opacity="0.85" filter="url(#g)"/>
<ellipse cx="108" cy="198" rx="14" ry="12" fill="#2b6cff" opacity="0.85" filter="url(#g)"/>
<ellipse cx="113" cy="110" rx="15" ry="13" fill="#2b6cff" opacity="0.85" filter="url(#g)"/>
<ellipse cx="197" cy="142" rx="11" ry="9" fill="#2b6cff" opacity="0.85" filter="url(#g)"/>
<ellipse cx="337" cy="146" rx="13" ry="11" fill="#2b6cff" opacity="0.85" filter="url(#g)"/>
<ellipse cx="89" cy="82" rx="15" ry="13" fill="#2b6cff" opacity="0.85" filter="url(#g)"/>
<ellipse cx="70" cy="155" rx="14" ry="12" fill="#2b6cff" opacity="0.85" filter="url(#g)"/>
<ellipse cx="388" cy="268" rx="17" ry="15" fill="#2b6cff" opacity="0.85" filter="url(#g)"/>
<ellipse cx="200" cy="288" rx="15" ry="13" fill="#2b6cff" opacity="0.85" filter="url(#g)"/>
<ellipse cx="272" cy="235" rx="13" ry="11" fill="#2b6cff" opacity="0.85" filter="url(#g)"/>
<ellipse cx="167" cy="142" rx="16" ry="14" fill="#2b6cff" opacity="0.85" filter="url(#g)"/>
<ellipse cx="439" cy="174" rx="11" ry="9" fill="#2b6cff" opacity="0.85" filter="url(#g)"/>
<ellipse cx="334" cy="203" rx="15" ry="13" fill="#2b6cff" opacity="0.85" filter="url(#g)"/>
<ellipse cx="293" cy="225" rx="16" ry="14" fill="#2b6cff" opacity="0.85" filter="url(#g)"/>
<ellipse cx="269" cy="197" rx="15" ry="13" fill="#2b6cff" opacity="0.85" filter="url(#g)"/>
<circle cx="373" cy="74" r="17" fill="none" stroke="#26e07a" stroke-width="3.2" opacity="0.72" filter="url(#g)"/>
<circle cx="338" cy="79" r="21" fill="none" stroke="#26e07a" stroke-width="3.2" opacity="0.75" filter="url(#g)"/>
<circle cx="149" cy="69" r="17" fill="none" stroke="#26e07a" stroke-width="3.2" opacity="0.82" filter="url(#g)"/>
<circle cx="163" cy="96" r="21" fill="none" stroke="#26e07a" stroke-width="3.2" opacity="0.90" filter="url(#g)"/>
<circle cx="257" cy="80" r="23" fill="none" stroke="#26e07a" stroke-width="3.2" opacity="0.83" filter="url(#g)"/>
<circle cx="329" cy="113" r="18" fill="none" stroke="#26e07a" stroke-width="3.2" opacity="0.78" filter="url(#g)"/>
<circle cx="362" cy="81" r="21" fill="none" stroke="#26e07a" stroke-width="3.2" opacity="0.89" filter="url(#g)"/>
<circle cx="153" cy="73" r="21" fill="none" stroke="#26e07a" stroke-width="3.2" opacity="0.82" filter="url(#g)"/>
<circle cx="108" cy="198" r="20" fill="none" stroke="#26e07a" stroke-width="3.2" opacity="0.83" filter="url(#g)"/>
<circle cx="89" cy="82" r="21" fill="none" stroke="#26e07a" stroke-width="3.2" opacity="0.70" filter="url(#g)"/>
<circle cx="388" cy="268" r="23" fill="none" stroke="#26e07a" stroke-width="3.2" opacity="0.73" filter="url(#g)"/>
<circle cx="200" cy="288" r="21" fill="none" stroke="#26e07a" stroke-width="3.2" opacity="0.60" filter="url(#g)"/>
<circle cx="272" cy="235" r="19" fill="none" stroke="#26e07a" stroke-width="3.2" opacity="0.86" filter="url(#g)"/>
<circle cx="167" cy="142" r="22" fill="none" stroke="#26e07a" stroke-width="3.2" opacity="0.65" filter="url(#g)"/>
<circle cx="439" cy="174" r="17" fill="none" stroke="#26e07a" stroke-width="3.2" opacity="0.90" filter="url(#g)"/>
<circle cx="334" cy="203" r="21" fill="none" stroke="#26e07a" stroke-width="3.2" opacity="0.73" filter="url(#g)"/>
<circle cx="293" cy="225" r="22" fill="none" stroke="#26e07a" stroke-width="3.2" opacity="0.90" filter="url(#g)"/>
<text x="16" y="28" font-size="14" fill="#e8eef5">IF: PD-L1 (green) / DAPI (blue) — MDA-MB-468</text>
<rect x="390" y="330" width="60" height="5" fill="#ffffff"/>
<text x="420" y="322" font-size="11" fill="#ffffff" text-anchor="middle">20 µm</text>
</svg>